<svg xmlns="http://www.w3.org/2000/svg" viewBox="0 0 512 512">
  <defs>
    <linearGradient id="sky" x1="64" y1="40" x2="448" y2="472" gradientUnits="userSpaceOnUse">
      <stop offset="0" stop-color="#ffcf70"/>
      <stop offset=".42" stop-color="#69d7cb"/>
      <stop offset=".72" stop-color="#ff7fa7"/>
      <stop offset="1" stop-color="#8b7cff"/>
    </linearGradient>
    <linearGradient id="book" x1="112" y1="256" x2="404" y2="392" gradientUnits="userSpaceOnUse">
      <stop offset="0" stop-color="#ffffff"/>
      <stop offset="1" stop-color="#fff5c9"/>
    </linearGradient>
    <filter id="shadow" x="-20%" y="-20%" width="140%" height="150%">
      <feDropShadow dx="0" dy="36" stdDeviation="28" flood-color="#21324f" flood-opacity=".2"/>
    </filter>
  </defs>

  <rect width="512" height="512" rx="128" fill="url(#sky)"/>
  <path d="M84 160c80-72 264-72 344 0" fill="none" stroke="#fff6cc" stroke-width="44" stroke-linecap="round" opacity=".92"/>
  <path d="M116 180c60-48 220-48 280 0" fill="none" stroke="#ffffff" stroke-width="32" stroke-linecap="round" opacity=".78"/>

  <g filter="url(#shadow)">
    <path d="M104 272c52-32 104-28 152 12v128c-48-36-100-40-152-12V272Z" fill="url(#book)"/>
    <path d="M408 272c-52-32-104-28-152 12v128c48-36 100-40 152-12V272Z" fill="#ffffff"/>
    <path d="M256 284v128" stroke="#65b9c7" stroke-width="12" stroke-linecap="round"/>
    <path d="M140 312c28-12 56-8 84 8M140 352c28-12 56-8 84 8M288 320c28-16 56-16 84-4M288 360c28-16 56-16 84-4" stroke="#8a7be8" stroke-width="12" stroke-linecap="round" opacity=".72"/>
  </g>

  <circle cx="136" cy="124" r="40" fill="#fff7cb"/>
  <circle cx="392" cy="136" r="32" fill="#ffffff" opacity=".88"/>
  <path d="m368 76 12 28 32 4-24 20 8 32-28-16-28 16 8-32-24-20 32-4 12-28Z" fill="#fff36d" stroke="#ffffff" stroke-width="8"/>

  <text x="256" y="252" text-anchor="middle" font-family="Rubik, Arial, sans-serif" font-size="172" font-weight="900" fill="#21324f">א</text>
  <text x="252" y="464" text-anchor="middle" font-family="Rubik, Arial, sans-serif" font-size="72" font-weight="900" fill="#21324f">123</text>
</svg>
